<svg width="128" height="128" viewBox="0 0 128 128" fill="none" xmlns="http://www.w3.org/2000/svg">
<path d="M29 8L9.5 9.5L8 29L30.5 41L24.5 47L30.5 50L36.5 44L42.5 48.5L39.5 51.5L44 56L51.5 51.5L56 44L51.5 39.5L48.5 42.5L44 36.5L50 30.5L47 24.5L41 30.5L29 8Z" fill="black" fill-opacity="0.08"/>
<path d="M120 93L118.5 73.5L99 72L87 94.5L81 88.5L78 94.5L84 100.5L79.5 106.5L76.5 103.5L72 108L76.5 115.5L84 120L88.5 115.5L85.5 112.5L91.5 108L97.5 114L103.5 111L97.5 105L120 93Z" fill="black" fill-opacity="0.08"/>
</svg>
